# xmcd
#
# Track frame offsets:
#	150
#	14937
#	34544
#	58286
#	83568
#	106820
#	129957
#	143989
#	161681
#	190878
#	210660
#
# Disc length: 3063 seconds
#
# Revision: 2
# Processed by: cddbd v1.5.1PL0 Copyright (c) Steve Scherf et al.
# Submitted via: audiograbber 1.83.01
#
DISCID=960bf50b
DTITLE=Evening Sun - My Shining Light
DYEAR=1900
DGENRE=Blues
TTITLE0=That's Right
TTITLE1=You're The Only One
TTITLE2=Where Can I Run To?
TTITLE3=You Got Me Cryin'
TTITLE4=Hard Hard Woman
TTITLE5=Poor Boy
TTITLE6=It Breaks My Heart
TTITLE7=I Gave You All My Love
TTITLE8=My Shining Light
TTITLE9=Somebody Wants To Rock
TTITLE10=Blues Man
EXTD=
EXTT0=
EXTT1=
EXTT2=
EXTT3=
EXTT4=
EXTT5=
EXTT6=
EXTT7=
EXTT8=
EXTT9=
EXTT10=
PLAYORDER=
